<svg width="30" height="30" viewBox="0 0 30 30" fill="none" xmlns="http://www.w3.org/2000/svg">
<path d="M29.5 15C29.5 21.386 25.3743 26.8037 19.6426 28.7402V18.8164H22.377H22.8164L22.8728 18.3806L23.3591 14.6248L23.4322 14.0605H22.8633H19.6426V12.1699C19.6426 11.6502 19.7217 11.3517 19.871 11.1749C20.0044 11.0169 20.2904 10.8477 21 10.8477H22.9688H23.4688V10.3477V6.99609V6.56033L23.0371 6.50078C22.6695 6.45009 21.4683 6.34961 20.0801 6.34961C18.5489 6.34961 17.2078 6.81884 16.2481 7.76774C15.2868 8.71816 14.7637 10.0949 14.7637 11.8008V14.0664H12.041H11.541V14.5664V18.3223V18.8223H12.041H14.7637V29.4981C6.86369 29.3719 0.5 22.9301 0.5 15C0.5 6.99099 6.99099 0.5 15 0.5C23.009 0.5 29.5 6.99099 29.5 15Z" fill="#FEFEFE" stroke="#C5AC2D"/>
</svg>
