<svg width="30" height="30" viewBox="0 0 30 30" fill="none" xmlns="http://www.w3.org/2000/svg">
<path d="M17.3711 15C17.3711 16.3096 16.3096 17.3711 15 17.3711C13.6904 17.3711 12.6289 16.3096 12.6289 15C12.6289 13.6904 13.6904 12.6289 15 12.6289C16.3096 12.6289 17.3711 13.6904 17.3711 15Z" fill="#FEFEFE" stroke="#C5AC2D"/>
<path d="M20.7165 9.28337L20.7114 9.27813C20.4856 9.04558 20.2107 8.8667 19.9067 8.75459L19.8987 8.75163L19.8987 8.75156C19.6449 8.65299 19.2424 8.52427 18.4578 8.48856L18.4578 8.48856C17.5609 8.44765 17.2975 8.43872 14.9999 8.43872C12.7021 8.43872 12.4387 8.44743 11.5422 8.48832L20.7165 9.28337ZM20.7165 9.28337L20.7218 9.28846M20.7165 9.28337L20.7218 9.28846M20.7218 9.28846C20.9543 9.51425 21.1332 9.78935 21.2453 10.0933L21.7144 9.92015L20.7218 9.28846ZM21.5116 18.458C21.4756 19.2426 21.3469 19.6452 21.2483 19.899L21.2479 19.9C21.0089 20.5196 20.5193 21.0092 19.8998 21.2482L19.8984 21.2487C19.6449 21.3474 19.2422 21.4761 18.4576 21.5118L18.4575 21.5118C17.5611 21.5527 17.2979 21.5614 14.9997 21.5614C12.7018 21.5614 12.4387 21.5527 11.5421 21.5118L11.5421 21.5118C10.7574 21.4761 10.3548 21.3474 10.1012 21.2487L10.1013 21.2486L10.0929 21.2455C9.78894 21.1334 9.51407 20.9546 9.28822 20.722L9.28313 20.7168L9.27789 20.7117C9.04546 20.4859 8.86668 20.2111 8.75425 19.9067L8.75432 19.9067L8.75131 19.899C8.65274 19.6452 8.52403 19.2426 8.48831 18.4581L8.48831 18.458C8.44741 17.5611 8.43848 17.2978 8.43848 15.0002C8.43848 12.7024 8.44741 12.439 8.48831 11.5424L8.48831 11.5423C8.52403 10.7577 8.65276 10.3549 8.75131 10.1012L8.75138 10.1012L8.75425 10.0934C8.86662 9.78924 9.04557 9.51431 9.27811 9.28846L9.28343 9.2833L9.28859 9.27798C9.51405 9.04564 9.78905 8.86674 10.0931 8.75459L10.0932 8.75466L10.1013 8.75151C10.3547 8.653 10.7575 8.52426 11.5421 8.48833L21.5116 18.458ZM21.5116 18.458C21.5116 18.458 21.5116 18.4579 21.5116 18.4579L22.011 18.4808L21.5116 18.458ZM21.1313 10.4024V10.4022C21.1313 9.5552 20.4447 8.86855 19.5977 8.86855C18.7507 8.86855 18.0641 9.5552 18.0641 10.4022C18.0641 11.2491 18.7507 11.9358 19.5977 11.9358C20.4449 11.9358 21.131 11.249 21.1313 10.4024ZM10.0768 15C10.0768 17.719 12.281 19.9229 14.9999 19.9229C17.7187 19.9229 19.9229 17.719 19.9229 15C19.9229 12.2809 17.7187 10.077 14.9999 10.077C12.281 10.077 10.0768 12.2809 10.0768 15Z" fill="#FEFEFE" stroke="#C5AC2D"/>
<path d="M11.4261 5.9392L11.4261 5.93919C12.356 5.89679 12.6583 5.88672 15 5.88672C17.3415 5.88672 17.644 5.89679 18.5738 5.93942L11.4261 5.9392ZM11.4261 5.9392C10.4631 5.98319 9.78335 6.13767 9.17944 6.37198C8.53919 6.61335 7.95885 6.99093 7.479 7.479C6.99101 7.95878 6.61315 8.53909 6.37175 9.17944M11.4261 5.9392L6.37175 9.17944M6.37175 9.17944C6.13745 9.78332 5.98297 10.463 5.9392 11.426L6.37175 9.17944ZM23.6273 20.8225C23.862 20.2182 24.017 19.5381 24.0608 18.574L5.93942 18.5741C5.98319 19.537 6.13792 20.217 6.37221 20.8206C6.61359 21.4609 6.99119 22.0412 7.479 22.521C7.95898 23.009 8.53905 23.3866 9.17965 23.628C9.78338 23.8623 10.4634 24.0168 11.4261 24.0608L11.4261 24.0608C12.3562 24.1032 12.6583 24.1133 15.0002 24.1133C17.3419 24.1133 17.6442 24.1032 18.5741 24.0608L18.5742 24.0608C19.5382 24.0168 20.2187 23.8619 20.8231 23.6271C22.111 23.1287 23.1291 22.1105 23.6273 20.8225ZM24.0608 18.5738C24.1034 17.644 24.1133 17.3414 24.1133 15C24.1133 12.6584 24.1034 12.3561 24.061 11.4261L24.061 11.4261C24.017 10.4633 23.8626 9.78353 23.6281 9.17959C23.3868 8.53899 23.0089 7.95892 22.5213 7.47904C22.0413 6.99104 21.4609 6.61314 20.8205 6.37171C20.2167 6.13769 19.537 5.9832 18.574 5.93943L24.0608 18.5738ZM0.5 15C0.5 6.99314 6.99314 0.5 15 0.5C23.0069 0.5 29.5 6.99314 29.5 15C29.5 23.0069 23.0069 29.5 15 29.5C6.99314 29.5 0.5 23.0069 0.5 15ZM5.88672 15C5.88672 17.3413 5.89655 17.644 5.93942 18.574L5.93919 11.4262C5.89656 12.356 5.88672 12.6586 5.88672 15Z" fill="#FEFEFE" stroke="#C5AC2D"/>
</svg>
