<svg width="60" height="60" viewBox="0 0 60 60" fill="none" xmlns="http://www.w3.org/2000/svg">
<g clip-path="url(#clip0)">
<path d="M38.4543 47.9088H5.5759C3.47063 47.9088 1.75781 46.1961 1.75781 44.0909V17.7879C1.75781 15.6826 3.47063 13.9699 5.5759 13.9699C6.06129 13.9699 6.4548 13.5764 6.4548 13.091C6.4548 12.6055 6.06129 12.2121 5.5759 12.2121C2.50137 12.2121 0 14.7134 0 17.7879V44.0909C0 47.1654 2.50137 49.6667 5.5759 49.6667H38.4543C38.9396 49.6667 39.3332 49.2733 39.3332 48.7877C39.3332 48.3025 38.9396 47.9088 38.4543 47.9088Z" fill="#C5AC2D"/>
<path d="M54.424 12.2121H25.3027C24.8173 12.2121 24.4238 12.6055 24.4238 13.091C24.4238 13.5764 24.8173 13.9699 25.3027 13.9699H54.424C56.5292 13.9699 58.242 15.6826 58.242 17.7879V44.0909C58.242 46.1961 56.5292 47.9088 54.424 47.9088H53.4846C52.9992 47.9088 52.6057 48.3024 52.6057 48.7877C52.6057 49.2733 52.9992 49.6667 53.4846 49.6667H54.424C57.4985 49.6667 59.9999 47.1654 59.9999 44.0909V17.7879C59.9999 14.7134 57.4985 12.2121 54.424 12.2121Z" fill="#C5AC2D"/>
<path d="M9.3335 13.9699C11.9567 13.9699 14.091 16.104 14.091 18.7274C14.091 19.2128 14.4845 19.6063 14.9699 19.6063C15.4553 19.6063 15.8488 19.2128 15.8488 18.7274C15.8488 16.1041 17.983 13.9699 20.6062 13.9699C21.0916 13.9699 21.4851 13.5764 21.4851 13.091C21.4851 12.6055 21.0916 12.2121 20.6062 12.2121C17.983 12.2121 15.8488 10.0779 15.8488 7.45465C15.8488 6.96926 15.4553 6.57574 14.9699 6.57574C14.4845 6.57574 14.091 6.96926 14.091 7.45465C14.091 10.0779 11.9569 12.2121 9.3335 12.2121C8.84811 12.2121 8.45459 12.6055 8.45459 13.091C8.45459 13.5764 8.84811 13.9699 9.3335 13.9699ZM14.9699 10.7201C15.5404 11.7012 16.3597 12.5204 17.3408 13.091C16.3597 13.6615 15.5404 14.4809 14.9699 15.4618C14.3993 14.4809 13.58 13.6615 12.599 13.091C13.5799 12.5204 14.3993 11.7012 14.9699 10.7201Z" fill="#C5AC2D"/>
<path d="M49.727 47.9088C48.1397 47.9088 46.8484 46.6174 46.8484 45.0302C46.8484 44.5449 46.4549 44.1513 45.9695 44.1513C45.4841 44.1513 45.0906 44.5449 45.0906 45.0302C45.0906 46.6175 43.7992 47.9088 42.2119 47.9088C41.7265 47.9088 41.333 48.3024 41.333 48.7877C41.333 49.2732 41.7265 49.6666 42.2119 49.6666C43.7992 49.6666 45.0906 50.9581 45.0906 52.5454C45.0906 53.0307 45.4841 53.4243 45.9695 53.4243C46.4549 53.4243 46.8484 53.0307 46.8484 52.5454C46.8484 50.9581 48.1398 49.6666 49.727 49.6666C50.2124 49.6666 50.6059 49.2732 50.6059 48.7877C50.6059 48.3025 50.2124 47.9088 49.727 47.9088ZM45.9694 49.832C45.679 49.431 45.3262 49.0781 44.9252 48.7877C45.3261 48.4974 45.679 48.1445 45.9694 47.7436C46.2598 48.1445 46.6127 48.4975 47.0137 48.7877C46.6127 49.0781 46.2598 49.4311 45.9694 49.832Z" fill="#C5AC2D"/>
<path d="M13.2759 22.5453C12.7905 22.5453 12.397 22.9389 12.397 23.4243V38.4418C12.397 38.8699 12.7054 39.2357 13.1273 39.3081C13.1883 39.3185 13.2767 39.3337 14.907 39.3337C15.6983 39.3337 16.8531 39.3301 18.544 39.3207C19.0294 39.318 19.4207 38.9223 19.418 38.4369C19.4153 37.9532 19.0224 37.5629 18.5392 37.5629C18.5376 37.5629 18.5358 37.5629 18.5342 37.5629C17.2014 37.5703 15.2498 37.5778 14.1549 37.5751V23.4243C14.1548 22.9389 13.7613 22.5453 13.2759 22.5453Z" fill="#C5AC2D"/>
<path d="M37.2863 39.173C37.4402 39.2814 37.6168 39.3335 37.7918 39.3335C38.068 39.3335 38.3399 39.2037 38.5111 38.9607L43.4622 31.9324L48.4062 38.9602C48.5773 39.2034 48.8494 39.3335 49.1258 39.3335C49.3005 39.3335 49.477 39.2815 49.6308 39.1733C50.0278 38.8941 50.1232 38.3457 49.8439 37.9488L44.5377 30.4059L49.0996 23.9304C49.379 23.5336 49.284 22.9853 48.8872 22.7057C48.4904 22.4261 47.9421 22.5212 47.6625 22.918L43.4633 28.8786L39.2705 22.9185C38.9911 22.5213 38.4429 22.4261 38.0458 22.7053C37.6488 22.9846 37.5534 23.5329 37.8327 23.9298L42.3879 30.4051L37.074 37.9482C36.7945 38.3452 36.8896 38.8935 37.2863 39.173Z" fill="#C5AC2D"/>
<path d="M24.7423 38.4028C25.7063 39.0188 26.7971 39.3318 27.9847 39.3334H27.9946C29.0264 39.3334 29.9918 39.1106 30.8641 38.6714C33.0336 37.5788 34.1803 35.8791 34.1803 33.7559V23.4243C34.1803 22.9389 33.7868 22.5453 33.3014 22.5453C32.816 22.5453 32.4225 22.9389 32.4225 23.4243V33.7559C32.4225 35.211 31.6541 36.3054 30.0735 37.1014C29.4485 37.4162 28.7491 37.5757 27.9943 37.5756C27.9919 37.5756 27.9894 37.5756 27.987 37.5756C27.1393 37.5744 26.366 37.3543 25.6886 36.9214C24.3202 36.0472 23.7363 35.1036 23.7363 33.7666V23.4243C23.7363 22.9389 23.3428 22.5453 22.8574 22.5453C22.372 22.5453 21.9785 22.9389 21.9785 23.4243V33.7666C21.9786 35.6982 22.8826 37.2147 24.7423 38.4028Z" fill="#C5AC2D"/>
</g>
<defs>
<clipPath id="clip0">
<rect width="60" height="60" fill="white"/>
</clipPath>
</defs>
</svg>
