<svg width="30" height="30" viewBox="0 0 30 30" fill="none" xmlns="http://www.w3.org/2000/svg">
<path d="M13.6316 13.0547L17.0091 14.9999L13.6316 16.9451V13.0547Z" fill="#FEFEFE" stroke="#C5AC2D"/>
<path d="M24.4704 19.6515L24.4696 19.6544C24.207 20.6293 23.4395 21.3968 22.4644 21.6592L22.4618 21.6599C22.044 21.7699 21.3581 21.8443 20.6055 21.8983C19.839 21.9533 18.9602 21.9898 18.1318 22.014C17.3026 22.0383 16.52 22.0504 15.945 22.0564C15.6574 22.0595 15.4215 22.061 15.2573 22.0617L15.0673 22.0624L15.0174 22.0625L15.0045 22.0625L15.0012 22.0625H15.0003H15.0001L15 21.5625C15 22.0625 15 22.0625 14.9999 22.0625H14.9997H14.9988L14.9955 22.0625L14.9826 22.0625L14.9328 22.0624L14.7432 22.0617C14.5794 22.0609 14.344 22.0593 14.0569 22.0562C13.483 22.0499 12.7017 22.0373 11.8734 22.0121C11.0458 21.9869 10.1671 21.949 9.39964 21.8918C8.64646 21.8356 7.95825 21.7582 7.53555 21.6439C6.56042 21.3815 5.793 20.6136 5.53039 19.6388L5.52999 19.6373C5.32185 18.8549 5.22414 17.6793 5.17598 16.7356C5.15151 16.2562 5.13929 15.8232 5.13319 15.5101C5.13013 15.3535 5.1286 15.2266 5.12783 15.1386L5.12716 15.0368L5.12707 15.0098L5.12706 15.0027L5.12706 15.0008L5.12706 15.0003V15.0001L5.62706 15L5.12706 14.9999V14.9997L5.12706 14.9992L5.12706 14.9973L5.12707 14.9902L5.12716 14.9634L5.12783 14.862C5.1286 14.7744 5.13013 14.648 5.13319 14.492C5.1393 14.1801 5.15151 13.7486 5.17598 13.2702C5.22417 12.3279 5.3219 11.1532 5.52965 10.364L5.53035 10.3613C5.79234 9.38778 6.57391 8.60461 7.5332 8.34144L7.5382 8.34007L7.53821 8.34009C7.95605 8.23011 8.64194 8.15571 9.39455 8.10168C10.161 8.04666 11.0398 8.01021 11.8682 7.98598C12.6974 7.96173 13.48 7.94962 14.055 7.94356C14.3426 7.94053 14.5785 7.93902 14.7427 7.93826L14.9327 7.9376L14.9826 7.93751L14.9955 7.9375L14.9988 7.9375H14.9997H14.9999L15 8.4375C15 7.9375 15 7.9375 15.0001 7.9375H15.0003H15.0012L15.0045 7.9375L15.0174 7.93751L15.0674 7.9376L15.2574 7.93829C15.4216 7.93908 15.6575 7.94065 15.9452 7.9438C16.5203 7.9501 17.303 7.96269 18.1324 7.98791C18.9609 8.01311 19.8401 8.05102 20.6069 8.10825C21.3588 8.16438 22.0458 8.24173 22.4655 8.35641M24.4704 19.6515L22.3345 8.83896M24.4704 19.6515C24.678 18.8623 24.7757 17.6876 24.8238 16.7453C24.8483 16.2668 24.8605 15.8352 24.8666 15.5234C24.8696 15.3673 24.8712 15.2409 24.8719 15.1533L24.8726 15.0519L24.8727 15.0251L24.8727 15.018L24.8727 15.0178L24.8727 15.0171L24.8727 15.0161V15.0156V15.0154M24.4704 19.6515L24.8727 15.0154M22.4655 8.35641C22.4658 8.35651 22.4662 8.3566 22.4665 8.35669L22.3345 8.83896M22.4655 8.35641C22.4651 8.35632 22.4648 8.35623 22.4644 8.35614L22.3345 8.83896M22.4655 8.35641C23.4398 8.619 24.2066 9.38624 24.4694 10.3603M22.3345 8.83896C23.1374 9.05502 23.7705 9.68834 23.9868 10.4913M24.4694 10.3603C24.4693 10.36 24.4692 10.3596 24.4691 10.3593L23.9868 10.4913M24.4694 10.3603C24.686 11.1527 24.7835 12.3335 24.8297 13.279C24.8532 13.7597 24.8639 14.1934 24.8688 14.507C24.8713 14.6638 24.8722 14.7909 24.8726 14.879L24.8728 14.981L24.8727 15.008L24.8727 15.0151L24.8727 15.0154M24.4694 10.3603C24.4694 10.3606 24.4695 10.3609 24.4696 10.3612L23.9868 10.4913M23.9868 10.4913L24.8727 15.0154M0.5 15C0.5 6.99314 6.99314 0.5 15 0.5C23.0069 0.5 29.5 6.99314 29.5 15C29.5 23.0069 23.0069 29.5 15 29.5C6.99314 29.5 0.5 23.0069 0.5 15Z" fill="#FEFEFE" stroke="#C5AC2D"/>
</svg>
